<svg width="31" height="19" viewBox="0 0 31 19" fill="none" xmlns="http://www.w3.org/2000/svg">
<path d="M26.8476 8.46093C27.7923 7.84308 29.3237 7.84308 30.2685 8.46093C31.2133 9.07858 31.2133 10.0804 30.2685 10.6982L18.2939 18.5283C17.6355 18.9588 16.6924 19.0885 15.8612 18.9189C15.0709 19.0467 14.2006 18.9116 13.5829 18.5078L1.68936 10.7285C0.750926 10.1151 0.750926 9.1207 1.68936 8.50683C2.62777 7.89325 4.14943 7.89321 5.0878 8.50683L15.9315 15.5986L26.8476 8.46093ZM23.955 0.336908C24.6478 -0.112103 25.771 -0.112176 26.4638 0.336908C27.1565 0.786246 27.1565 1.51455 26.4638 1.96386L17.6825 7.65917C17.1997 7.97243 16.5079 8.06577 15.8983 7.94238C15.3187 8.03536 14.6804 7.9373 14.2274 7.64355L5.50577 1.98632C4.8175 1.53962 4.8175 0.816357 5.50577 0.370111C6.19378 -0.0759551 7.30893 -0.0759514 7.99698 0.370111L15.9491 5.52734L23.955 0.336908Z" fill="white"/>
</svg>
